<svg xmlns="http://www.w3.org/2000/svg" xmlns:xlink="http://www.w3.org/1999/xlink" viewBox="0 0 746.2 890.63"><defs><style>.cls-1{fill:url(#linear-gradient);}.cls-2{fill:url(#linear-gradient-2);}.cls-3{fill:url(#linear-gradient-3);}.cls-4{fill:url(#linear-gradient-4);}.cls-5{fill:url(#linear-gradient-5);}.cls-6{fill:url(#linear-gradient-6);}</style><linearGradient id="linear-gradient" x1="367.26" y1="782.74" x2="556.73" y2="782.74" gradientUnits="userSpaceOnUse"><stop offset="0" stop-color="#26ada5"/><stop offset="1" stop-color="#34e1d5"/><stop offset="1" stop-color="#fff"/></linearGradient><linearGradient id="linear-gradient-2" x1="367.26" y1="336.98" x2="746.2" y2="336.98" xlink:href="#linear-gradient"/><linearGradient id="linear-gradient-3" x1="556.73" y1="614.33" x2="746.2" y2="614.33" xlink:href="#linear-gradient"/><linearGradient id="linear-gradient-4" x1="189.47" y1="558.19" x2="378.94" y2="558.19" gradientUnits="userSpaceOnUse"><stop offset="0" stop-color="#00669a"/><stop offset="1" stop-color="#32a8e2"/></linearGradient><linearGradient id="linear-gradient-5" x1="0" y1="112.42" x2="378.94" y2="112.42" xlink:href="#linear-gradient-4"/><linearGradient id="linear-gradient-6" x1="0" y1="389.78" x2="189.47" y2="389.78" xlink:href="#linear-gradient-4"/></defs><title>Asset 2</title><g id="Layer_2" data-name="Layer 2"><g id="Layer_1-2" data-name="Layer 1"><path id="Path_57-4" data-name="Path 57-4" class="cls-1" d="M367.26,779.27,556.73,674.85V890.63Z"/><path id="Path_58-4" data-name="Path 58-4" class="cls-2" d="M746.2,338,555,224.56,367.26,338,556.73,449.4Z"/><path id="Path_59-4" data-name="Path 59-4" class="cls-3" d="M746.2,787.67l-189.47,103V449.39L746.2,338Z"/><path id="Path_54-4" data-name="Path 54-4" class="cls-4" d="M378.94,554.72,189.47,450.3V666.08Z"/><path id="Path_55-4" data-name="Path 55-4" class="cls-5" d="M0,113.47,191.21,0,378.94,113.47,189.47,224.84Z"/><path id="Path_56-4" data-name="Path 56-4" class="cls-6" d="M0,563.13l189.47,103V224.85L0,113.48Z"/></g></g></svg>