<svg viewBox="0 0 1626.14 360.79" xmlns="http://www.w3.org/2000/svg" xmlns:xlink="http://www.w3.org/1999/xlink"><linearGradient id="a" gradientTransform="matrix(45.77 0 0 -50.94 -130276.97 36572.95)" gradientUnits="userSpaceOnUse" x1="2862.22" x2="2863.97" y1="713.54" y2="713.54"><stop offset="0" stop-color="#00669a"/><stop offset="1" stop-color="#32a8e2"/></linearGradient><linearGradient id="b" gradientTransform="matrix(87.5 0 0 -51.91 -253031.85 37163.56)" x1="2899.49" x2="2901.25" xlink:href="#a" y1="714.98" y2="714.98"/><linearGradient id="c" gradientTransform="matrix(43.75 0 0 -127.59 -124362.89 91015.41)" x1="2857.85" x2="2859.6" xlink:href="#a" y1="712.09" y2="712.09"/><linearGradient id="d" gradientTransform="matrix(45.77 0 0 -50.94 -130233.9 36624.79)" gradientUnits="userSpaceOnUse" x1="2862.93" x2="2865" y1="712.72" y2="712.78"><stop offset="0" stop-color="#26ada5"/><stop offset="1" stop-color="#34e1d5"/><stop offset="1" stop-color="#fff"/></linearGradient><linearGradient id="e" gradientTransform="matrix(87.5 0 0 -51.91 -252947.03 37215.4)" x1="2900.22" x2="2902.29" xlink:href="#d" y1="714.2" y2="714.26"/><linearGradient id="f" gradientTransform="matrix(43.75 0 0 -127.59 -124234.34 91067.96)" x1="2860.06" x2="2862.13" xlink:href="#d" y1="711.75" y2="711.82"/><path d="m815.7 224.72-80.31-44.27 3.55 89.38z" fill="url(#a)"/><path d="m662.19 46 77.46-46 76.05 46-76.76 45.08z" fill="url(#b)"/><path d="m662.19 228.12 76.75 41.71v-178.75l-76.75-45.08z" fill="url(#c)"/><path d="m811 315.68 80.31-44.26-3.55 89.37z" fill="url(#d)"/><path d="m964.47 136.93-77.47-45.93-76.06 46 76.76 45.12z" fill="url(#e)"/><path d="m964.47 319.08-76.75 41.71v-178.79l76.75-45.11z" fill="url(#f)"/><path d="m209.78 264.25a2 2 0 0 1 -2.27-2.35v-8.37a2.05 2.05 0 0 1 2.27-2.36h18.57a22.3 22.3 0 0 0 22.05-22v-2.17h-24.58a37.66 37.66 0 0 1 -37.74-37.67v-13.39a37.66 37.66 0 0 1 64.33-26.59 36.08 36.08 0 0 1 11.07 26.59v38h143.63a9.25 9.25 0 0 0 7-2.36 10 10 0 0 0 2.36-7.41v-62.46c0-1.63.78-2.44 2.35-2.44h8.28a2.16 2.16 0 0 1 2.44 1.83 2.08 2.08 0 0 1 0 .61v64.92a6.18 6.18 0 0 0 1.48 4.53q2.79 2.79 10.64 2.79h30.05a.62.62 0 0 0 .26.09 10.22 10.22 0 0 0 6.89-2.35 9.94 9.94 0 0 0 2.44-7.33v-62.82a2.08 2.08 0 0 1 1.77-2.35 1.88 1.88 0 0 1 .58 0h8.29a2.08 2.08 0 0 1 2.35 1.76 1.94 1.94 0 0 1 0 .59v65.09a6.12 6.12 0 0 0 1.57 4.53q2.61 2.7 10.55 2.79h26.37a9.58 9.58 0 0 0 7.06-2.35 9.91 9.91 0 0 0 2.44-7.33v-62.92a2 2 0 0 1 2.27-2.35h8.37a2.08 2.08 0 0 1 2.35 1.77 1.88 1.88 0 0 1 0 .58v65.28a6.13 6.13 0 0 0 1.58 4.53q2.61 2.7 10.46 2.79h21.19a8.41 8.41 0 0 0 9.67-9.68v-62.73c0-1.57.81-2.35 2.44-2.35h8.28c1.63 0 2.45.78 2.44 2.35v62.73q0 10.47-6.19 16.65a22.93 22.93 0 0 1 -16.73 6.08h-18.86q-12.91 0-19.62-6.63l-.26-.26a2.62 2.62 0 0 1 -.61.79 22.43 22.43 0 0 1 -16.48 6.1h-23.93q-13 0-19.7-6.62l-.09-.09a.25.25 0 0 1 -.08-.18 5.2 5.2 0 0 0 -.61.79 22.55 22.55 0 0 1 -16.57 6.1h-27.79q-13.08 0-19.61-6.54a1.31 1.31 0 0 1 -.27-.35 1.83 1.83 0 0 1 -.35.44 2.11 2.11 0 0 1 -.26.35q-6.1 6.1-16.56 6.1h-143.28v2.09a35.75 35.75 0 0 1 -35.13 35.14zm-1.39-105.66a23.45 23.45 0 0 0 -7.24 17.35v13.42a24.72 24.72 0 0 0 24.67 24.64h24.58v-38a23.45 23.45 0 0 0 -7.24-17.35 24.49 24.49 0 0 0 -34.77 0zm908.87 90.54-3-3a2.58 2.58 0 0 1 -.79-1.66 2.73 2.73 0 0 1 .79-1.76l5.87-5.87a2.6 2.6 0 0 1 1.76-.7 2 2 0 0 1 1.58.7l3 2.89a24.75 24.75 0 0 0 42.23-17.52v-8.85a37.87 37.87 0 0 1 -62.64-28.56v-41.8c0-1.63.78-2.45 2.36-2.45h8.5c1.52 0 2.28.82 2.28 2.45v41.79a24.75 24.75 0 0 0 49.5 0v-41.79a2.13 2.13 0 0 1 2.36-2.45h8.41a2.13 2.13 0 0 1 2.37 2.45v79.64a37.85 37.85 0 0 1 -37.85 37.5 36.43 36.43 0 0 1 -26.73-11zm498-19.09a2.11 2.11 0 0 1 -2.37-1.78 2.33 2.33 0 0 1 0-.59v-49a24.71 24.71 0 1 0 -49.42 0v49a2.13 2.13 0 0 1 -1.85 2.38 2.41 2.41 0 0 1 -.6 0h-8.41a2.1 2.1 0 0 1 -2.37-1.78 2 2 0 0 1 0-.59v-124.94a2.1 2.1 0 0 1 1.77-2.37 3 3 0 0 1 .6 0h8.39a2.13 2.13 0 0 1 2.45 2.37v47.31a37.93 37.93 0 0 1 62.65 28.65v49q0 2.37-2.46 2.37zm-101.08 0q-2.28 0-2.28-2.37v-6.92a37.83 37.83 0 0 1 -62.64-28.65v-13.4a37.87 37.87 0 0 1 75.7-1.76v50.73q0 2.37-2.28 2.37zm-44.5-68.87a23.88 23.88 0 0 0 -7.27 17.52v13.41a23.88 23.88 0 0 0 7.27 17.52 23.56 23.56 0 0 0 17.43 7.27 24.84 24.84 0 0 0 24.8-24.79v-13.41a24.78 24.78 0 0 0 -42.23-17.52zm-56.47 68.83a2.1 2.1 0 0 1 -2.37-1.78 2 2 0 0 1 0-.59v-124.81a2.13 2.13 0 0 1 2.37-2.45h8.41c1.58 0 2.36.82 2.36 2.45v124.85a2.09 2.09 0 0 1 -1.77 2.37 2.91 2.91 0 0 1 -.59 0zm-94.07-11.13a36.61 36.61 0 0 1 -11-26.72v-13.5a37.85 37.85 0 1 1 75.7 0v13.5a37.85 37.85 0 0 1 -64.66 26.72zm9.29-57.65a23.76 23.76 0 0 0 -7.19 17.44v13.49a24.71 24.71 0 1 0 49.42 0v-13.45a24.72 24.72 0 0 0 -42.23-17.44zm-110.27 57.65a36.54 36.54 0 0 1 -11-26.72v-13.5a37.85 37.85 0 1 1 75.69 0v13.5a37.85 37.85 0 0 1 -64.66 26.72zm9.28-57.65a23.72 23.72 0 0 0 -7.18 17.44v13.49a24.71 24.71 0 1 0 49.41 0v-13.45a24.72 24.72 0 0 0 -42.23-17.44zm-184.19 68.78a27.48 27.48 0 0 1 -16.64-5.62 27 27 0 0 1 -10.08-14.36l-.17-.53a5.2 5.2 0 0 1 -.09-1c0-1 .58-1.67 1.75-2l7.89-2.46a4.15 4.15 0 0 1 .79-.08 2.41 2.41 0 0 1 1.14.26 3 3 0 0 1 1.14 1.49l.17.44a14.89 14.89 0 0 0 14.2 10.69h8.58a14.77 14.77 0 0 0 8.94-3 14 14 0 0 0 5.34-7.71 14.21 14.21 0 0 0 .62-4.3 9.55 9.55 0 0 0 -2.9-7 9.39 9.39 0 0 0 -6.93-2.82h-18.57a22.52 22.52 0 0 1 -16.38-6.75 22.18 22.18 0 0 1 -6.75-16.3 27.54 27.54 0 0 1 1.23-8.06 27.91 27.91 0 0 1 26.54-20.07h8.85a27.57 27.57 0 0 1 16.83 5.52 27.08 27.08 0 0 1 10.07 14.46l.26.35a5.2 5.2 0 0 1 .09 1c0 1-.58 1.67-1.75 2l-7.89 2.36a3.79 3.79 0 0 1 -1 .18 2.12 2.12 0 0 1 -2-1.66l-.26-.35a13.65 13.65 0 0 0 -5.34-7.72 14.51 14.51 0 0 0 -8.94-3h-8.67a15.1 15.1 0 0 0 -8.85 3 14.84 14.84 0 0 0 -5.27 7.72 14.13 14.13 0 0 0 -.61 4.29 9.87 9.87 0 0 0 9.91 9.9h18.5a23 23 0 0 1 23 23 28.48 28.48 0 0 1 -1.22 8.15 27 27 0 0 1 -10.08 14.45 27.44 27.44 0 0 1 -16.82 5.52zm-1005.58-3a36 36 0 0 1 -26.59-11 36.34 36.34 0 0 1 -11.08-26.72v-13.28a36.36 36.36 0 0 1 11.08-26.68 36.08 36.08 0 0 1 26.59-11.12 36.36 36.36 0 0 1 26.66 11.07 36.47 36.47 0 0 1 11 26.68v38h65.19a.31.31 0 0 0 .18.09 9.82 9.82 0 0 0 7.07-2.35 10.23 10.23 0 0 0 2.35-7.33v-103.82a2.11 2.11 0 0 1 1.76-2.43 1.94 1.94 0 0 1 .59 0h8.37a2.13 2.13 0 0 1 2.36 1.89 2 2 0 0 1 0 .59v103.69q0 10.47-6.18 16.65a22.81 22.81 0 0 1 -16.59 6.07zm-17.35-68.49a23.73 23.73 0 0 0 -7.24 17.43v13.34a23.73 23.73 0 0 0 7.24 17.43 23.45 23.45 0 0 0 17.35 7.29h24.67v-38a23.77 23.77 0 0 0 -7.24-17.5 23.92 23.92 0 0 0 -17.43-7.15 23.64 23.64 0 0 0 -17.35 7.15z" fill="#f2f2f2"/><circle cx="20.36" cy="111.48" fill="#0e78ae" r="10.85"/><circle cx="49.26" cy="111.48" fill="#0e78ae" r="10.85"/><g fill="#2bc1b7"><circle cx="401.64" cy="251.04" r="10.85"/><circle cx="430.55" cy="251.04" r="10.85"/></g></svg>